<mxfile host="app.diagrams.net" agent="Mozilla/5.0 (Windows NT 10.0; Win64; x64) AppleWebKit/537.36 (KHTML, like Gecko) Chrome/129.0.0.0 Safari/537.36 CCleaner/129.0.0.0" version="24.8.2">
  <diagram name="Page-1" id="ICIlDwkwhrRnBKipHEM9">
    <mxGraphModel dx="1674" dy="746" grid="1" gridSize="10" guides="1" tooltips="1" connect="1" arrows="1" fold="1" page="1" pageScale="1" pageWidth="827" pageHeight="1169" math="0" shadow="0">
      <root>
        <mxCell id="0" />
        <mxCell id="1" parent="0" />
        <mxCell id="7ydnyLyAO0v6t1_Miq5--25" value="" style="rounded=0;whiteSpace=wrap;html=1;" vertex="1" parent="1">
          <mxGeometry x="400" y="120" width="950" height="310" as="geometry" />
        </mxCell>
        <mxCell id="7ydnyLyAO0v6t1_Miq5--10" style="edgeStyle=orthogonalEdgeStyle;rounded=0;orthogonalLoop=1;jettySize=auto;html=1;entryX=0.5;entryY=1;entryDx=0;entryDy=0;" edge="1" parent="1" source="7ydnyLyAO0v6t1_Miq5--1" target="7ydnyLyAO0v6t1_Miq5--2">
          <mxGeometry relative="1" as="geometry" />
        </mxCell>
        <mxCell id="7ydnyLyAO0v6t1_Miq5--1" value="&lt;font style=&quot;font-size: 18px;&quot;&gt;LOGIN&lt;/font&gt;" style="whiteSpace=wrap;html=1;aspect=fixed;" vertex="1" parent="1">
          <mxGeometry x="110" y="450" width="120" height="120" as="geometry" />
        </mxCell>
        <mxCell id="7ydnyLyAO0v6t1_Miq5--2" value="" style="whiteSpace=wrap;html=1;aspect=fixed;align=left;" vertex="1" parent="1">
          <mxGeometry x="40" y="100" width="260" height="260" as="geometry" />
        </mxCell>
        <mxCell id="7ydnyLyAO0v6t1_Miq5--5" value="" style="rounded=0;whiteSpace=wrap;html=1;rotation=90;" vertex="1" parent="1">
          <mxGeometry x="106" y="167.5" width="220" height="125" as="geometry" />
        </mxCell>
        <mxCell id="7ydnyLyAO0v6t1_Miq5--6" value="&lt;font style=&quot;font-size: 14px;&quot;&gt;DASHBOARD&lt;/font&gt;" style="text;html=1;align=center;verticalAlign=middle;whiteSpace=wrap;rounded=0;" vertex="1" parent="1">
          <mxGeometry x="64" y="210" width="60" height="30" as="geometry" />
        </mxCell>
        <mxCell id="7ydnyLyAO0v6t1_Miq5--7" value="&lt;div style=&quot;text-align: left;&quot;&gt;&lt;span style=&quot;background-color: initial;&quot;&gt;&lt;font style=&quot;font-size: 18px;&quot;&gt;Profile&lt;/font&gt;&lt;/span&gt;&lt;/div&gt;&lt;div style=&quot;text-align: left;&quot;&gt;&lt;span style=&quot;background-color: initial;&quot;&gt;&lt;font style=&quot;font-size: 18px;&quot;&gt;Bill&lt;/font&gt;&lt;/span&gt;&lt;/div&gt;&lt;div style=&quot;text-align: left;&quot;&gt;&lt;span style=&quot;background-color: initial;&quot;&gt;&lt;font size=&quot;3&quot; style=&quot;&quot;&gt;Debts&lt;/font&gt;&lt;/span&gt;&lt;/div&gt;&lt;div style=&quot;text-align: left;&quot;&gt;&lt;font size=&quot;3&quot;&gt;Budgets&lt;/font&gt;&lt;/div&gt;&lt;div style=&quot;text-align: left;&quot;&gt;&lt;font size=&quot;3&quot;&gt;Savings&lt;/font&gt;&lt;/div&gt;&lt;div style=&quot;text-align: left;&quot;&gt;&lt;font size=&quot;3&quot;&gt;Loans&lt;/font&gt;&lt;/div&gt;&lt;div style=&quot;text-align: left;&quot;&gt;&lt;font size=&quot;3&quot;&gt;Reports&lt;/font&gt;&lt;/div&gt;&lt;div style=&quot;text-align: left;&quot;&gt;&lt;font size=&quot;3&quot;&gt;Rewards&lt;/font&gt;&lt;/div&gt;&lt;div style=&quot;text-align: left;&quot;&gt;&lt;font size=&quot;3&quot;&gt;AI&lt;/font&gt;&lt;/div&gt;&lt;div&gt;&lt;br&gt;&lt;/div&gt;" style="text;html=1;align=center;verticalAlign=middle;whiteSpace=wrap;rounded=0;" vertex="1" parent="1">
          <mxGeometry x="150" y="155" width="106" height="150" as="geometry" />
        </mxCell>
        <mxCell id="7ydnyLyAO0v6t1_Miq5--9" value="&lt;font style=&quot;font-size: 18px;&quot;&gt;&lt;b&gt;Sketch Finance App&lt;/b&gt;&lt;/font&gt;" style="text;html=1;align=center;verticalAlign=middle;whiteSpace=wrap;rounded=0;" vertex="1" parent="1">
          <mxGeometry x="55" y="30" width="230" height="30" as="geometry" />
        </mxCell>
        <mxCell id="7ydnyLyAO0v6t1_Miq5--11" value="&lt;font style=&quot;font-size: 18px;&quot;&gt;LOGIN&lt;/font&gt;" style="whiteSpace=wrap;html=1;aspect=fixed;" vertex="1" parent="1">
          <mxGeometry x="765" y="490" width="120" height="120" as="geometry" />
        </mxCell>
        <mxCell id="7ydnyLyAO0v6t1_Miq5--12" value="&lt;font style=&quot;font-size: 18px;&quot;&gt;&lt;b&gt;MVC Finance App&lt;/b&gt;&lt;/font&gt;" style="text;html=1;align=center;verticalAlign=middle;whiteSpace=wrap;rounded=0;" vertex="1" parent="1">
          <mxGeometry x="710" y="40" width="230" height="30" as="geometry" />
        </mxCell>
        <mxCell id="7ydnyLyAO0v6t1_Miq5--13" value="&lt;font style=&quot;font-size: 14px;&quot;&gt;UserDB&lt;/font&gt;" style="shape=cylinder3;whiteSpace=wrap;html=1;boundedLbl=1;backgroundOutline=1;size=15;" vertex="1" parent="1">
          <mxGeometry x="490" y="331" width="140" height="60" as="geometry" />
        </mxCell>
        <mxCell id="7ydnyLyAO0v6t1_Miq5--14" value="&lt;font style=&quot;font-size: 14px;&quot;&gt;TransactionDB&lt;/font&gt;" style="shape=cylinder3;whiteSpace=wrap;html=1;boundedLbl=1;backgroundOutline=1;size=15;" vertex="1" parent="1">
          <mxGeometry x="700" y="331" width="140" height="60" as="geometry" />
        </mxCell>
        <mxCell id="7ydnyLyAO0v6t1_Miq5--15" value="&lt;font style=&quot;font-size: 14px;&quot;&gt;ReportDB&lt;/font&gt;" style="shape=cylinder3;whiteSpace=wrap;html=1;boundedLbl=1;backgroundOutline=1;size=15;" vertex="1" parent="1">
          <mxGeometry x="900" y="331" width="140" height="60" as="geometry" />
        </mxCell>
        <mxCell id="7ydnyLyAO0v6t1_Miq5--16" value="&lt;font style=&quot;font-size: 14px;&quot;&gt;BudgetDB&lt;/font&gt;" style="shape=cylinder3;whiteSpace=wrap;html=1;boundedLbl=1;backgroundOutline=1;size=15;" vertex="1" parent="1">
          <mxGeometry x="1110" y="331" width="140" height="60" as="geometry" />
        </mxCell>
        <mxCell id="7ydnyLyAO0v6t1_Miq5--17" value="&lt;font style=&quot;font-size: 14px;&quot;&gt;Dashboard&lt;/font&gt;" style="ellipse;whiteSpace=wrap;html=1;" vertex="1" parent="1">
          <mxGeometry x="610" y="238" width="170" height="60" as="geometry" />
        </mxCell>
        <mxCell id="7ydnyLyAO0v6t1_Miq5--18" value="&lt;font style=&quot;font-size: 14px;&quot;&gt;AI&lt;/font&gt;" style="ellipse;whiteSpace=wrap;html=1;" vertex="1" parent="1">
          <mxGeometry x="900" y="238" width="170" height="60" as="geometry" />
        </mxCell>
        <mxCell id="7ydnyLyAO0v6t1_Miq5--19" value="&lt;font style=&quot;font-size: 14px;&quot;&gt;Budgets&lt;/font&gt;" style="rounded=0;whiteSpace=wrap;html=1;" vertex="1" parent="1">
          <mxGeometry x="440" y="157.5" width="120" height="42.5" as="geometry" />
        </mxCell>
        <mxCell id="7ydnyLyAO0v6t1_Miq5--20" value="&lt;font style=&quot;font-size: 14px;&quot;&gt;Bills&lt;/font&gt;" style="rounded=0;whiteSpace=wrap;html=1;" vertex="1" parent="1">
          <mxGeometry x="600" y="157.5" width="120" height="42.5" as="geometry" />
        </mxCell>
        <mxCell id="7ydnyLyAO0v6t1_Miq5--21" value="&lt;font style=&quot;font-size: 14px;&quot;&gt;Savings&lt;/font&gt;" style="rounded=0;whiteSpace=wrap;html=1;" vertex="1" parent="1">
          <mxGeometry x="750" y="157.5" width="120" height="42.5" as="geometry" />
        </mxCell>
        <mxCell id="7ydnyLyAO0v6t1_Miq5--22" value="&lt;font style=&quot;font-size: 14px;&quot;&gt;Loans&amp;nbsp;&lt;/font&gt;" style="rounded=0;whiteSpace=wrap;html=1;" vertex="1" parent="1">
          <mxGeometry x="890" y="157.5" width="120" height="42.5" as="geometry" />
        </mxCell>
        <mxCell id="7ydnyLyAO0v6t1_Miq5--23" value="&lt;font style=&quot;font-size: 14px;&quot;&gt;Reports&lt;/font&gt;" style="rounded=0;whiteSpace=wrap;html=1;" vertex="1" parent="1">
          <mxGeometry x="1040" y="157.5" width="120" height="42.5" as="geometry" />
        </mxCell>
        <mxCell id="7ydnyLyAO0v6t1_Miq5--24" value="&lt;font style=&quot;font-size: 14px;&quot;&gt;Rewards&lt;/font&gt;" style="rounded=0;whiteSpace=wrap;html=1;" vertex="1" parent="1">
          <mxGeometry x="1190" y="157.5" width="120" height="42.5" as="geometry" />
        </mxCell>
      </root>
    </mxGraphModel>
  </diagram>
</mxfile>
